<mxfile host="app.diagrams.net" modified="2023-04-08T16:04:01.642Z" agent="Mozilla/5.0 (Macintosh; Intel Mac OS X 10_15_7) AppleWebKit/605.1.15 (KHTML, like Gecko) Version/16.3 Safari/605.1.15" etag="2FrrCDhR0vB1GxNcOu4H" version="21.1.5" type="google">
  <diagram name="Page-1" id="e7e014a7-5840-1c2e-5031-d8a46d1fe8dd">
    <mxGraphModel grid="1" page="1" gridSize="10" guides="1" tooltips="1" connect="1" arrows="1" fold="1" pageScale="1" pageWidth="1169" pageHeight="826" background="none" math="0" shadow="0">
      <root>
        <mxCell id="0" />
        <mxCell id="1" parent="0" />
        <mxCell id="In_1ycDexwG0fZhjrG3--41" value="" style="ellipse;html=1;shape=startState;fillColor=#dae8fc;strokeColor=#6c8ebf;" vertex="1" parent="1">
          <mxGeometry x="379.5" y="30" width="30" height="30" as="geometry" />
        </mxCell>
        <mxCell id="In_1ycDexwG0fZhjrG3--42" value="" style="edgeStyle=orthogonalEdgeStyle;html=1;verticalAlign=bottom;endArrow=open;endSize=8;strokeColor=#6c8ebf;rounded=0;entryX=0.5;entryY=0;entryDx=0;entryDy=0;fillColor=#dae8fc;" edge="1" parent="1" source="In_1ycDexwG0fZhjrG3--41" target="In_1ycDexwG0fZhjrG3--43">
          <mxGeometry relative="1" as="geometry">
            <mxPoint x="394.5" y="120" as="targetPoint" />
          </mxGeometry>
        </mxCell>
        <mxCell id="In_1ycDexwG0fZhjrG3--43" value="Step 1" style="rounded=1;whiteSpace=wrap;html=1;arcSize=40;fillColor=#dae8fc;strokeColor=#6c8ebf;" vertex="1" parent="1">
          <mxGeometry x="334.5" y="80" width="120" height="40" as="geometry" />
        </mxCell>
        <mxCell id="In_1ycDexwG0fZhjrG3--44" value="" style="edgeStyle=orthogonalEdgeStyle;html=1;verticalAlign=bottom;endArrow=open;endSize=8;strokeColor=#6c8ebf;rounded=0;entryX=0.5;entryY=0;entryDx=0;entryDy=0;fillColor=#dae8fc;" edge="1" parent="1" source="In_1ycDexwG0fZhjrG3--43" target="In_1ycDexwG0fZhjrG3--45">
          <mxGeometry relative="1" as="geometry">
            <mxPoint x="394.5" y="180" as="targetPoint" />
          </mxGeometry>
        </mxCell>
        <mxCell id="In_1ycDexwG0fZhjrG3--45" value="" style="rhombus;fillColor=#dae8fc;strokeColor=#6c8ebf;" vertex="1" parent="1">
          <mxGeometry x="380" y="140" width="30" height="30" as="geometry" />
        </mxCell>
        <mxCell id="In_1ycDexwG0fZhjrG3--48" value="Step 2" style="rounded=1;whiteSpace=wrap;html=1;arcSize=40;fillColor=#dae8fc;strokeColor=#6c8ebf;" vertex="1" parent="1">
          <mxGeometry x="335" y="190" width="120" height="40" as="geometry" />
        </mxCell>
        <mxCell id="In_1ycDexwG0fZhjrG3--49" value="" style="edgeStyle=orthogonalEdgeStyle;html=1;verticalAlign=bottom;endArrow=open;endSize=8;strokeColor=#6c8ebf;rounded=0;entryX=0.5;entryY=0;entryDx=0;entryDy=0;fillColor=#dae8fc;" edge="1" parent="1" source="In_1ycDexwG0fZhjrG3--48" target="In_1ycDexwG0fZhjrG3--72">
          <mxGeometry relative="1" as="geometry">
            <mxPoint x="394" y="250" as="targetPoint" />
          </mxGeometry>
        </mxCell>
        <mxCell id="In_1ycDexwG0fZhjrG3--54" value="Yes" style="edgeStyle=orthogonalEdgeStyle;html=1;verticalAlign=bottom;endArrow=open;endSize=8;strokeColor=#6C8EBF;rounded=0;entryX=0.5;entryY=0;entryDx=0;entryDy=0;fillColor=#dae8fc;exitX=0.5;exitY=1;exitDx=0;exitDy=0;fontColor=#6C8EBF;" edge="1" parent="1" source="In_1ycDexwG0fZhjrG3--45" target="In_1ycDexwG0fZhjrG3--48">
          <mxGeometry x="1" y="15" relative="1" as="geometry">
            <mxPoint x="399.5" y="190" as="targetPoint" />
            <mxPoint x="399.5" y="170" as="sourcePoint" />
            <mxPoint as="offset" />
          </mxGeometry>
        </mxCell>
        <mxCell id="In_1ycDexwG0fZhjrG3--57" value="Step 4.1" style="rounded=1;whiteSpace=wrap;html=1;arcSize=40;fillColor=#dae8fc;strokeColor=#6c8ebf;" vertex="1" parent="1">
          <mxGeometry x="249.5" y="400" width="120" height="40" as="geometry" />
        </mxCell>
        <mxCell id="In_1ycDexwG0fZhjrG3--58" value="" style="edgeStyle=orthogonalEdgeStyle;html=1;verticalAlign=bottom;endArrow=open;endSize=8;strokeColor=#6c8ebf;rounded=0;entryX=0;entryY=0.769;entryDx=0;entryDy=0;fillColor=#dae8fc;entryPerimeter=0;" edge="1" parent="1" source="In_1ycDexwG0fZhjrG3--57" target="In_1ycDexwG0fZhjrG3--89">
          <mxGeometry relative="1" as="geometry">
            <mxPoint x="309.5" y="460" as="targetPoint" />
          </mxGeometry>
        </mxCell>
        <mxCell id="In_1ycDexwG0fZhjrG3--59" value="Step 4.2" style="rounded=1;whiteSpace=wrap;html=1;arcSize=40;fillColor=#dae8fc;strokeColor=#6c8ebf;" vertex="1" parent="1">
          <mxGeometry x="413" y="400" width="120" height="40" as="geometry" />
        </mxCell>
        <mxCell id="In_1ycDexwG0fZhjrG3--60" value="" style="edgeStyle=orthogonalEdgeStyle;html=1;verticalAlign=bottom;endArrow=open;endSize=8;strokeColor=#6c8ebf;rounded=0;fillColor=#dae8fc;entryX=0;entryY=0.256;entryDx=0;entryDy=0;entryPerimeter=0;" edge="1" parent="1" target="In_1ycDexwG0fZhjrG3--89">
          <mxGeometry relative="1" as="geometry">
            <mxPoint x="405" y="450" as="targetPoint" />
            <mxPoint x="474" y="440" as="sourcePoint" />
            <Array as="points">
              <mxPoint x="474" y="460" />
              <mxPoint x="415" y="460" />
            </Array>
          </mxGeometry>
        </mxCell>
        <mxCell id="In_1ycDexwG0fZhjrG3--63" value="Action / Control Flow" style="endArrow=block;html=1;rounded=0;endFill=1;align=right;" edge="1" parent="1">
          <mxGeometry x="-1" y="-20" width="50" height="50" relative="1" as="geometry">
            <mxPoint x="169.5" y="70" as="sourcePoint" />
            <mxPoint x="369.5" y="70" as="targetPoint" />
            <mxPoint x="-20" y="-20" as="offset" />
          </mxGeometry>
        </mxCell>
        <mxCell id="In_1ycDexwG0fZhjrG3--68" value="Start" style="endArrow=block;html=1;rounded=0;endFill=1;align=right;" edge="1" parent="1">
          <mxGeometry x="-1" y="-20" width="50" height="50" relative="1" as="geometry">
            <mxPoint x="169.5" y="44.65999999999997" as="sourcePoint" />
            <mxPoint x="369.5" y="45" as="targetPoint" />
            <mxPoint x="-20" y="-20" as="offset" />
          </mxGeometry>
        </mxCell>
        <mxCell id="In_1ycDexwG0fZhjrG3--69" value="Action / Activity" style="endArrow=block;html=1;rounded=0;endFill=1;align=right;" edge="1" parent="1">
          <mxGeometry x="-1" y="-20" width="50" height="50" relative="1" as="geometry">
            <mxPoint x="169" y="99.65999999999997" as="sourcePoint" />
            <mxPoint x="319.5" y="100" as="targetPoint" />
            <mxPoint x="-20" y="-20" as="offset" />
          </mxGeometry>
        </mxCell>
        <mxCell id="In_1ycDexwG0fZhjrG3--70" value="Decision / Merge" style="endArrow=block;html=1;rounded=0;endFill=1;align=right;" edge="1" parent="1">
          <mxGeometry x="-1" y="-20" width="50" height="50" relative="1" as="geometry">
            <mxPoint x="169.5" y="154.65999999999997" as="sourcePoint" />
            <mxPoint x="369.5" y="155" as="targetPoint" />
            <mxPoint x="-20" y="-20" as="offset" />
          </mxGeometry>
        </mxCell>
        <mxCell id="In_1ycDexwG0fZhjrG3--71" value="Basic Flow" style="endArrow=block;html=1;rounded=0;endFill=1;align=right;" edge="1" parent="1">
          <mxGeometry x="-1" y="-20" width="50" height="50" relative="1" as="geometry">
            <mxPoint x="169.5" y="180" as="sourcePoint" />
            <mxPoint x="369.5" y="180.34000000000003" as="targetPoint" />
            <mxPoint x="-20" y="-20" as="offset" />
          </mxGeometry>
        </mxCell>
        <mxCell id="In_1ycDexwG0fZhjrG3--72" value="" style="rhombus;fillColor=#dae8fc;strokeColor=#6c8ebf;" vertex="1" parent="1">
          <mxGeometry x="379.5" y="250" width="30" height="30" as="geometry" />
        </mxCell>
        <mxCell id="In_1ycDexwG0fZhjrG3--74" value="" style="edgeStyle=orthogonalEdgeStyle;html=1;verticalAlign=bottom;endArrow=open;endSize=8;strokeColor=#6c8ebf;rounded=0;entryX=0.5;entryY=0;entryDx=0;entryDy=0;fillColor=#dae8fc;exitX=0.5;exitY=1;exitDx=0;exitDy=0;" edge="1" parent="1" source="In_1ycDexwG0fZhjrG3--72" target="In_1ycDexwG0fZhjrG3--80">
          <mxGeometry relative="1" as="geometry">
            <mxPoint x="393.5" y="300" as="targetPoint" />
            <mxPoint x="399" y="280" as="sourcePoint" />
          </mxGeometry>
        </mxCell>
        <mxCell id="In_1ycDexwG0fZhjrG3--75" value="Returning Alternative &lt;br&gt;Flow" style="endArrow=block;html=1;rounded=0;endFill=1;align=right;" edge="1" parent="1">
          <mxGeometry x="-1" y="-20" width="50" height="50" relative="1" as="geometry">
            <mxPoint x="169.5" y="264.65999999999997" as="sourcePoint" />
            <mxPoint x="369.5" y="265" as="targetPoint" />
            <mxPoint x="-20" y="-20" as="offset" />
          </mxGeometry>
        </mxCell>
        <mxCell id="In_1ycDexwG0fZhjrG3--76" value="No" style="edgeStyle=orthogonalEdgeStyle;html=1;verticalAlign=bottom;endArrow=open;endSize=8;strokeColor=#6C8EBF;rounded=0;entryX=1;entryY=0.5;entryDx=0;entryDy=0;fillColor=#dae8fc;exitX=1;exitY=0.5;exitDx=0;exitDy=0;fontColor=#6C8EBF;" edge="1" parent="1" source="In_1ycDexwG0fZhjrG3--45" target="In_1ycDexwG0fZhjrG3--48">
          <mxGeometry x="0.3505" relative="1" as="geometry">
            <mxPoint x="489.5" y="230" as="targetPoint" />
            <mxPoint x="489.5" y="210" as="sourcePoint" />
            <Array as="points">
              <mxPoint x="489.5" y="155" />
              <mxPoint x="489.5" y="210" />
            </Array>
            <mxPoint as="offset" />
          </mxGeometry>
        </mxCell>
        <mxCell id="In_1ycDexwG0fZhjrG3--77" value="Alternative Flow" style="endArrow=block;html=1;rounded=0;endFill=1;align=left;" edge="1" parent="1">
          <mxGeometry x="-1" y="-10" width="50" height="50" relative="1" as="geometry">
            <mxPoint x="569.5" y="180" as="sourcePoint" />
            <mxPoint x="509.5" y="180" as="targetPoint" />
            <mxPoint x="10" y="10" as="offset" />
          </mxGeometry>
        </mxCell>
        <mxCell id="In_1ycDexwG0fZhjrG3--80" value="Step 3" style="rounded=1;whiteSpace=wrap;html=1;arcSize=40;fillColor=#dae8fc;strokeColor=#6c8ebf;" vertex="1" parent="1">
          <mxGeometry x="334.5" y="300" width="120" height="40" as="geometry" />
        </mxCell>
        <mxCell id="In_1ycDexwG0fZhjrG3--81" value="" style="edgeStyle=orthogonalEdgeStyle;html=1;verticalAlign=bottom;endArrow=open;endSize=8;strokeColor=#6c8ebf;rounded=0;entryX=-0.146;entryY=0.499;entryDx=0;entryDy=0;fillColor=#dae8fc;entryPerimeter=0;exitX=0.5;exitY=1;exitDx=0;exitDy=0;" edge="1" parent="1" source="In_1ycDexwG0fZhjrG3--80" target="In_1ycDexwG0fZhjrG3--83">
          <mxGeometry relative="1" as="geometry">
            <mxPoint x="393.41999999999996" y="359.27" as="targetPoint" />
            <mxPoint x="393.5" y="340" as="sourcePoint" />
          </mxGeometry>
        </mxCell>
        <mxCell id="In_1ycDexwG0fZhjrG3--83" value="" style="html=1;points=[];perimeter=orthogonalPerimeter;fillColor=#dae8fc;direction=south;strokeColor=#6c8ebf;" vertex="1" parent="1">
          <mxGeometry x="354.5" y="360" width="80" height="5" as="geometry" />
        </mxCell>
        <mxCell id="In_1ycDexwG0fZhjrG3--85" value="Fork" style="endArrow=block;html=1;rounded=0;endFill=1;align=right;" edge="1" parent="1">
          <mxGeometry x="-1" y="-20" width="50" height="50" relative="1" as="geometry">
            <mxPoint x="169.5" y="362.29999999999995" as="sourcePoint" />
            <mxPoint x="339.5" y="363" as="targetPoint" />
            <mxPoint x="-20" y="-20" as="offset" />
          </mxGeometry>
        </mxCell>
        <mxCell id="In_1ycDexwG0fZhjrG3--86" value="" style="edgeStyle=orthogonalEdgeStyle;html=1;verticalAlign=bottom;endArrow=open;endSize=8;strokeColor=#6c8ebf;rounded=0;entryX=0.5;entryY=0;entryDx=0;entryDy=0;fillColor=#dae8fc;exitX=1;exitY=0.748;exitDx=0;exitDy=0;exitPerimeter=0;" edge="1" parent="1" source="In_1ycDexwG0fZhjrG3--83" target="In_1ycDexwG0fZhjrG3--57">
          <mxGeometry relative="1" as="geometry">
            <mxPoint x="299.5" y="450" as="targetPoint" />
            <mxPoint x="299.5" y="430" as="sourcePoint" />
          </mxGeometry>
        </mxCell>
        <mxCell id="In_1ycDexwG0fZhjrG3--87" value="" style="edgeStyle=orthogonalEdgeStyle;html=1;verticalAlign=bottom;endArrow=open;endSize=8;strokeColor=#6c8ebf;rounded=0;entryX=0.5;entryY=0;entryDx=0;entryDy=0;fillColor=#dae8fc;exitX=1.067;exitY=0.244;exitDx=0;exitDy=0;exitPerimeter=0;" edge="1" parent="1" source="In_1ycDexwG0fZhjrG3--83">
          <mxGeometry relative="1" as="geometry">
            <mxPoint x="474" y="400" as="targetPoint" />
            <mxPoint x="383.5" y="375" as="sourcePoint" />
          </mxGeometry>
        </mxCell>
        <mxCell id="In_1ycDexwG0fZhjrG3--88" value="Parallel Activities" style="endArrow=block;html=1;rounded=0;endFill=1;align=right;" edge="1" parent="1">
          <mxGeometry x="-1" y="-20" width="50" height="50" relative="1" as="geometry">
            <mxPoint x="169.5" y="419.5799999999999" as="sourcePoint" />
            <mxPoint x="239.5" y="420" as="targetPoint" />
            <mxPoint x="-20" y="-20" as="offset" />
          </mxGeometry>
        </mxCell>
        <mxCell id="In_1ycDexwG0fZhjrG3--89" value="" style="html=1;points=[];perimeter=orthogonalPerimeter;fillColor=#dae8fc;direction=south;strokeColor=#6c8ebf;" vertex="1" parent="1">
          <mxGeometry x="355.5" y="480" width="80" height="5" as="geometry" />
        </mxCell>
        <mxCell id="In_1ycDexwG0fZhjrG3--90" value="Merge" style="endArrow=block;html=1;rounded=0;endFill=1;align=right;" edge="1" parent="1">
          <mxGeometry x="-1" y="-20" width="50" height="50" relative="1" as="geometry">
            <mxPoint x="165" y="481" as="sourcePoint" />
            <mxPoint x="335" y="481" as="targetPoint" />
            <mxPoint x="-20" y="-20" as="offset" />
          </mxGeometry>
        </mxCell>
        <mxCell id="In_1ycDexwG0fZhjrG3--91" value="" style="ellipse;html=1;shape=endState;fillColor=#dae8fc;strokeColor=#6c8ebf;" vertex="1" parent="1">
          <mxGeometry x="379.5" y="510" width="30" height="30" as="geometry" />
        </mxCell>
        <mxCell id="In_1ycDexwG0fZhjrG3--92" value="" style="edgeStyle=orthogonalEdgeStyle;html=1;verticalAlign=bottom;endArrow=open;endSize=8;strokeColor=#6c8ebf;rounded=0;fillColor=#dae8fc;exitX=1.124;exitY=0.512;exitDx=0;exitDy=0;exitPerimeter=0;" edge="1" parent="1" source="In_1ycDexwG0fZhjrG3--89" target="In_1ycDexwG0fZhjrG3--91">
          <mxGeometry relative="1" as="geometry">
            <mxPoint x="335" y="550" as="targetPoint" />
            <mxPoint x="335" y="530" as="sourcePoint" />
          </mxGeometry>
        </mxCell>
        <mxCell id="In_1ycDexwG0fZhjrG3--93" value="End" style="endArrow=block;html=1;rounded=0;endFill=1;align=right;" edge="1" parent="1">
          <mxGeometry x="-1" y="-20" width="50" height="50" relative="1" as="geometry">
            <mxPoint x="165" y="524.6600000000001" as="sourcePoint" />
            <mxPoint x="375" y="525" as="targetPoint" />
            <mxPoint x="-20" y="-20" as="offset" />
          </mxGeometry>
        </mxCell>
        <mxCell id="Mg5R0EyQ01lNSAKN2Ion-57" value="Customer" style="swimlane;whiteSpace=wrap;fillColor=#dae8fc;strokeColor=#6c8ebf;" vertex="1" parent="1">
          <mxGeometry x="165" y="570" width="280" height="570" as="geometry" />
        </mxCell>
        <mxCell id="Mg5R0EyQ01lNSAKN2Ion-93" style="edgeStyle=orthogonalEdgeStyle;rounded=0;orthogonalLoop=1;jettySize=auto;html=1;exitX=1;exitY=0.5;exitDx=0;exitDy=0;entryX=0;entryY=0.5;entryDx=0;entryDy=0;fillColor=#dae8fc;strokeColor=#6c8ebf;" edge="1" parent="Mg5R0EyQ01lNSAKN2Ion-57" source="Mg5R0EyQ01lNSAKN2Ion-58" target="Mg5R0EyQ01lNSAKN2Ion-92">
          <mxGeometry relative="1" as="geometry" />
        </mxCell>
        <mxCell id="Mg5R0EyQ01lNSAKN2Ion-58" value="" style="ellipse;shape=startState;fillColor=#dae8fc;strokeColor=#6c8ebf;" vertex="1" parent="Mg5R0EyQ01lNSAKN2Ion-57">
          <mxGeometry x="42" y="60" width="30" height="30" as="geometry" />
        </mxCell>
        <mxCell id="Mg5R0EyQ01lNSAKN2Ion-92" value="Start Session" style="html=1;whiteSpace=wrap;fillColor=#dae8fc;strokeColor=#6c8ebf;rounded=1;" vertex="1" parent="Mg5R0EyQ01lNSAKN2Ion-57">
          <mxGeometry x="112" y="50" width="110" height="50" as="geometry" />
        </mxCell>
        <mxCell id="Mg5R0EyQ01lNSAKN2Ion-98" value="Forgot Pin" style="edgeStyle=orthogonalEdgeStyle;rounded=0;orthogonalLoop=1;jettySize=auto;html=1;exitX=0.5;exitY=0;exitDx=0;exitDy=0;entryX=0.5;entryY=1;entryDx=0;entryDy=0;align=right;fillColor=#dae8fc;strokeColor=#6c8ebf;" edge="1" parent="Mg5R0EyQ01lNSAKN2Ion-57" source="Mg5R0EyQ01lNSAKN2Ion-96" target="Mg5R0EyQ01lNSAKN2Ion-92">
          <mxGeometry relative="1" as="geometry" />
        </mxCell>
        <mxCell id="Mg5R0EyQ01lNSAKN2Ion-96" value="" style="rhombus;fillColor=#dae8fc;strokeColor=#6c8ebf;" vertex="1" parent="Mg5R0EyQ01lNSAKN2Ion-57">
          <mxGeometry x="152" y="140" width="30" height="30" as="geometry" />
        </mxCell>
        <mxCell id="Mg5R0EyQ01lNSAKN2Ion-113" value="Enter&lt;br&gt;Amount" style="rounded=1;whiteSpace=wrap;html=1;arcSize=40;fillColor=#dae8fc;strokeColor=#6c8ebf;" vertex="1" parent="Mg5R0EyQ01lNSAKN2Ion-57">
          <mxGeometry x="80" y="265" width="120" height="40" as="geometry" />
        </mxCell>
        <mxCell id="Mg5R0EyQ01lNSAKN2Ion-129" style="edgeStyle=orthogonalEdgeStyle;rounded=0;orthogonalLoop=1;jettySize=auto;html=1;exitX=0;exitY=0.5;exitDx=0;exitDy=0;entryX=1;entryY=0.5;entryDx=0;entryDy=0;fillColor=#dae8fc;strokeColor=#6c8ebf;endArrow=block;endFill=1;" edge="1" parent="Mg5R0EyQ01lNSAKN2Ion-57" source="Mg5R0EyQ01lNSAKN2Ion-124" target="Mg5R0EyQ01lNSAKN2Ion-125">
          <mxGeometry relative="1" as="geometry" />
        </mxCell>
        <mxCell id="Mg5R0EyQ01lNSAKN2Ion-124" value="Get Cash" style="rounded=1;whiteSpace=wrap;html=1;arcSize=40;fillColor=#dae8fc;strokeColor=#6c8ebf;" vertex="1" parent="Mg5R0EyQ01lNSAKN2Ion-57">
          <mxGeometry x="112" y="420" width="120" height="40" as="geometry" />
        </mxCell>
        <mxCell id="Mg5R0EyQ01lNSAKN2Ion-125" value="" style="ellipse;html=1;shape=endState;fillColor=#dae8fc;strokeColor=#6c8ebf;" vertex="1" parent="Mg5R0EyQ01lNSAKN2Ion-57">
          <mxGeometry x="42" y="425" width="30" height="30" as="geometry" />
        </mxCell>
        <mxCell id="Mg5R0EyQ01lNSAKN2Ion-66" value="ATM" style="swimlane;whiteSpace=wrap;fillColor=#dae8fc;strokeColor=#6c8ebf;" vertex="1" parent="1">
          <mxGeometry x="445" y="570" width="280" height="570" as="geometry" />
        </mxCell>
        <mxCell id="Mg5R0EyQ01lNSAKN2Ion-94" value="Request Pin" style="html=1;whiteSpace=wrap;fillColor=#dae8fc;strokeColor=#6c8ebf;rounded=1;" vertex="1" parent="Mg5R0EyQ01lNSAKN2Ion-66">
          <mxGeometry x="84" y="50" width="110" height="50" as="geometry" />
        </mxCell>
        <mxCell id="Mg5R0EyQ01lNSAKN2Ion-107" style="edgeStyle=orthogonalEdgeStyle;rounded=0;orthogonalLoop=1;jettySize=auto;html=1;exitX=1;exitY=0.5;exitDx=0;exitDy=0;entryX=0;entryY=0.5;entryDx=0;entryDy=0;fillColor=#dae8fc;strokeColor=#6c8ebf;endArrow=block;endFill=1;" edge="1" parent="Mg5R0EyQ01lNSAKN2Ion-66" source="Mg5R0EyQ01lNSAKN2Ion-105" target="Mg5R0EyQ01lNSAKN2Ion-106">
          <mxGeometry relative="1" as="geometry" />
        </mxCell>
        <mxCell id="Mg5R0EyQ01lNSAKN2Ion-105" value="Processing Pin" style="rounded=1;whiteSpace=wrap;html=1;arcSize=40;fillColor=#dae8fc;strokeColor=#6c8ebf;" vertex="1" parent="Mg5R0EyQ01lNSAKN2Ion-66">
          <mxGeometry x="41.5" y="190" width="120" height="40" as="geometry" />
        </mxCell>
        <mxCell id="Mg5R0EyQ01lNSAKN2Ion-108" value="Wrong&lt;br&gt;&lt;div style=&quot;text-align: center;&quot;&gt;pin&lt;/div&gt;" style="edgeStyle=orthogonalEdgeStyle;rounded=0;orthogonalLoop=1;jettySize=auto;html=1;exitX=0.5;exitY=0;exitDx=0;exitDy=0;entryX=1;entryY=0.5;entryDx=0;entryDy=0;align=right;fillColor=#dae8fc;strokeColor=#6c8ebf;endArrow=block;endFill=1;" edge="1" parent="Mg5R0EyQ01lNSAKN2Ion-66" source="Mg5R0EyQ01lNSAKN2Ion-106" target="Mg5R0EyQ01lNSAKN2Ion-94">
          <mxGeometry relative="1" as="geometry" />
        </mxCell>
        <mxCell id="Mg5R0EyQ01lNSAKN2Ion-106" value="" style="rhombus;fillColor=#dae8fc;strokeColor=#6c8ebf;" vertex="1" parent="Mg5R0EyQ01lNSAKN2Ion-66">
          <mxGeometry x="206.5" y="195" width="30" height="30" as="geometry" />
        </mxCell>
        <mxCell id="Mg5R0EyQ01lNSAKN2Ion-112" value="Request Amount&lt;br&gt;to Withdraw" style="rounded=1;whiteSpace=wrap;html=1;arcSize=40;fillColor=#dae8fc;strokeColor=#6c8ebf;" vertex="1" parent="Mg5R0EyQ01lNSAKN2Ion-66">
          <mxGeometry x="79" y="265" width="120" height="40" as="geometry" />
        </mxCell>
        <mxCell id="Mg5R0EyQ01lNSAKN2Ion-120" style="edgeStyle=orthogonalEdgeStyle;rounded=0;orthogonalLoop=1;jettySize=auto;html=1;exitX=1;exitY=0.5;exitDx=0;exitDy=0;entryX=0;entryY=0.5;entryDx=0;entryDy=0;fillColor=#dae8fc;strokeColor=#6c8ebf;endArrow=block;endFill=1;" edge="1" parent="Mg5R0EyQ01lNSAKN2Ion-66" source="Mg5R0EyQ01lNSAKN2Ion-117" target="Mg5R0EyQ01lNSAKN2Ion-118">
          <mxGeometry relative="1" as="geometry" />
        </mxCell>
        <mxCell id="Mg5R0EyQ01lNSAKN2Ion-117" value="Processing&lt;br&gt;Amount" style="rounded=1;whiteSpace=wrap;html=1;arcSize=40;fillColor=#dae8fc;strokeColor=#6c8ebf;" vertex="1" parent="Mg5R0EyQ01lNSAKN2Ion-66">
          <mxGeometry x="35" y="340" width="120" height="40" as="geometry" />
        </mxCell>
        <mxCell id="Mg5R0EyQ01lNSAKN2Ion-119" style="edgeStyle=orthogonalEdgeStyle;rounded=0;orthogonalLoop=1;jettySize=auto;html=1;exitX=0.5;exitY=0;exitDx=0;exitDy=0;entryX=0.5;entryY=1;entryDx=0;entryDy=0;fillColor=#dae8fc;strokeColor=#6c8ebf;endArrow=block;endFill=1;" edge="1" parent="Mg5R0EyQ01lNSAKN2Ion-66" source="Mg5R0EyQ01lNSAKN2Ion-118" target="Mg5R0EyQ01lNSAKN2Ion-112">
          <mxGeometry relative="1" as="geometry" />
        </mxCell>
        <mxCell id="Mg5R0EyQ01lNSAKN2Ion-118" value="" style="rhombus;fillColor=#dae8fc;strokeColor=#6c8ebf;" vertex="1" parent="Mg5R0EyQ01lNSAKN2Ion-66">
          <mxGeometry x="206.5" y="345" width="30" height="30" as="geometry" />
        </mxCell>
        <mxCell id="Mg5R0EyQ01lNSAKN2Ion-123" value="Processing&lt;br&gt;Withdrawal" style="rounded=1;whiteSpace=wrap;html=1;arcSize=40;fillColor=#dae8fc;strokeColor=#6c8ebf;" vertex="1" parent="Mg5R0EyQ01lNSAKN2Ion-66">
          <mxGeometry x="80" y="420" width="120" height="40" as="geometry" />
        </mxCell>
        <mxCell id="Mg5R0EyQ01lNSAKN2Ion-85" value="Bank" style="swimlane;whiteSpace=wrap;fillColor=#dae8fc;strokeColor=#6c8ebf;" vertex="1" parent="1">
          <mxGeometry x="725" y="570" width="280" height="570" as="geometry" />
        </mxCell>
        <mxCell id="Mg5R0EyQ01lNSAKN2Ion-111" value="Autorize Card" style="rounded=1;whiteSpace=wrap;html=1;arcSize=40;fillColor=#dae8fc;strokeColor=#6c8ebf;" vertex="1" parent="Mg5R0EyQ01lNSAKN2Ion-85">
          <mxGeometry x="79.5" y="190" width="120" height="40" as="geometry" />
        </mxCell>
        <mxCell id="Mg5R0EyQ01lNSAKN2Ion-122" value="Authorise&lt;br&gt;Withdrawal" style="rounded=1;whiteSpace=wrap;html=1;arcSize=40;fillColor=#dae8fc;strokeColor=#6c8ebf;" vertex="1" parent="Mg5R0EyQ01lNSAKN2Ion-85">
          <mxGeometry x="75" y="340" width="120" height="40" as="geometry" />
        </mxCell>
        <mxCell id="Mg5R0EyQ01lNSAKN2Ion-95" style="edgeStyle=orthogonalEdgeStyle;rounded=0;orthogonalLoop=1;jettySize=auto;html=1;exitX=1;exitY=0.5;exitDx=0;exitDy=0;fillColor=#dae8fc;strokeColor=#6c8ebf;endArrow=block;endFill=1;" edge="1" parent="1" source="Mg5R0EyQ01lNSAKN2Ion-92" target="Mg5R0EyQ01lNSAKN2Ion-94">
          <mxGeometry relative="1" as="geometry" />
        </mxCell>
        <mxCell id="Mg5R0EyQ01lNSAKN2Ion-97" value="Enter pin" style="edgeStyle=orthogonalEdgeStyle;rounded=0;orthogonalLoop=1;jettySize=auto;html=1;exitX=0.5;exitY=1;exitDx=0;exitDy=0;entryX=1;entryY=0.5;entryDx=0;entryDy=0;fillColor=#dae8fc;strokeColor=#6c8ebf;endArrow=block;endFill=1;" edge="1" parent="1" source="Mg5R0EyQ01lNSAKN2Ion-94" target="Mg5R0EyQ01lNSAKN2Ion-96">
          <mxGeometry x="-0.0409" y="-15" relative="1" as="geometry">
            <mxPoint as="offset" />
          </mxGeometry>
        </mxCell>
        <mxCell id="Mg5R0EyQ01lNSAKN2Ion-109" style="edgeStyle=orthogonalEdgeStyle;rounded=0;orthogonalLoop=1;jettySize=auto;html=1;exitX=0.5;exitY=1;exitDx=0;exitDy=0;entryX=0;entryY=0.5;entryDx=0;entryDy=0;fillColor=#dae8fc;strokeColor=#6c8ebf;endArrow=block;endFill=1;" edge="1" parent="1" source="Mg5R0EyQ01lNSAKN2Ion-96" target="Mg5R0EyQ01lNSAKN2Ion-105">
          <mxGeometry relative="1" as="geometry" />
        </mxCell>
        <mxCell id="Mg5R0EyQ01lNSAKN2Ion-114" style="edgeStyle=orthogonalEdgeStyle;rounded=0;orthogonalLoop=1;jettySize=auto;html=1;exitX=1;exitY=0.5;exitDx=0;exitDy=0;entryX=0;entryY=0.5;entryDx=0;entryDy=0;fillColor=#dae8fc;strokeColor=#6c8ebf;endArrow=block;endFill=1;" edge="1" parent="1" source="Mg5R0EyQ01lNSAKN2Ion-106" target="Mg5R0EyQ01lNSAKN2Ion-111">
          <mxGeometry relative="1" as="geometry" />
        </mxCell>
        <mxCell id="Mg5R0EyQ01lNSAKN2Ion-115" style="edgeStyle=orthogonalEdgeStyle;rounded=0;orthogonalLoop=1;jettySize=auto;html=1;exitX=0.5;exitY=1;exitDx=0;exitDy=0;entryX=1;entryY=0.5;entryDx=0;entryDy=0;fillColor=#dae8fc;strokeColor=#6c8ebf;endArrow=block;endFill=1;" edge="1" parent="1" source="Mg5R0EyQ01lNSAKN2Ion-111" target="Mg5R0EyQ01lNSAKN2Ion-112">
          <mxGeometry relative="1" as="geometry" />
        </mxCell>
        <mxCell id="Mg5R0EyQ01lNSAKN2Ion-116" style="edgeStyle=orthogonalEdgeStyle;rounded=0;orthogonalLoop=1;jettySize=auto;html=1;exitX=0;exitY=0.5;exitDx=0;exitDy=0;entryX=1;entryY=0.5;entryDx=0;entryDy=0;fillColor=#dae8fc;strokeColor=#6c8ebf;endArrow=block;endFill=1;" edge="1" parent="1" source="Mg5R0EyQ01lNSAKN2Ion-112" target="Mg5R0EyQ01lNSAKN2Ion-113">
          <mxGeometry relative="1" as="geometry" />
        </mxCell>
        <mxCell id="Mg5R0EyQ01lNSAKN2Ion-121" style="edgeStyle=orthogonalEdgeStyle;rounded=0;orthogonalLoop=1;jettySize=auto;html=1;exitX=0.5;exitY=1;exitDx=0;exitDy=0;entryX=0;entryY=0.5;entryDx=0;entryDy=0;fillColor=#dae8fc;strokeColor=#6c8ebf;endArrow=block;endFill=1;" edge="1" parent="1" source="Mg5R0EyQ01lNSAKN2Ion-113" target="Mg5R0EyQ01lNSAKN2Ion-117">
          <mxGeometry relative="1" as="geometry" />
        </mxCell>
        <mxCell id="Mg5R0EyQ01lNSAKN2Ion-126" style="edgeStyle=orthogonalEdgeStyle;rounded=0;orthogonalLoop=1;jettySize=auto;html=1;exitX=1;exitY=0.5;exitDx=0;exitDy=0;entryX=0;entryY=0.5;entryDx=0;entryDy=0;fillColor=#dae8fc;strokeColor=#6c8ebf;endArrow=block;endFill=1;" edge="1" parent="1" source="Mg5R0EyQ01lNSAKN2Ion-118" target="Mg5R0EyQ01lNSAKN2Ion-122">
          <mxGeometry relative="1" as="geometry" />
        </mxCell>
        <mxCell id="Mg5R0EyQ01lNSAKN2Ion-127" style="edgeStyle=orthogonalEdgeStyle;rounded=0;orthogonalLoop=1;jettySize=auto;html=1;exitX=0.5;exitY=1;exitDx=0;exitDy=0;entryX=1;entryY=0.5;entryDx=0;entryDy=0;fillColor=#dae8fc;strokeColor=#6c8ebf;endArrow=block;endFill=1;" edge="1" parent="1" source="Mg5R0EyQ01lNSAKN2Ion-122" target="Mg5R0EyQ01lNSAKN2Ion-123">
          <mxGeometry relative="1" as="geometry" />
        </mxCell>
        <mxCell id="Mg5R0EyQ01lNSAKN2Ion-128" style="edgeStyle=orthogonalEdgeStyle;rounded=0;orthogonalLoop=1;jettySize=auto;html=1;exitX=0;exitY=0.5;exitDx=0;exitDy=0;entryX=1;entryY=0.5;entryDx=0;entryDy=0;fillColor=#dae8fc;strokeColor=#6c8ebf;endArrow=block;endFill=1;" edge="1" parent="1" source="Mg5R0EyQ01lNSAKN2Ion-123" target="Mg5R0EyQ01lNSAKN2Ion-124">
          <mxGeometry relative="1" as="geometry" />
        </mxCell>
        <mxCell id="Mg5R0EyQ01lNSAKN2Ion-132" style="edgeStyle=orthogonalEdgeStyle;rounded=0;orthogonalLoop=1;jettySize=auto;html=1;exitX=0.5;exitY=1;exitDx=0;exitDy=0;entryX=0.5;entryY=0;entryDx=0;entryDy=0;endArrow=block;endFill=1;fillColor=#dae8fc;strokeColor=#6c8ebf;" edge="1" parent="1" source="Mg5R0EyQ01lNSAKN2Ion-130" target="Mg5R0EyQ01lNSAKN2Ion-131">
          <mxGeometry relative="1" as="geometry" />
        </mxCell>
        <mxCell id="Mg5R0EyQ01lNSAKN2Ion-130" value="" style="ellipse;html=1;shape=startState;fillColor=#dae8fc;strokeColor=#6c8ebf;" vertex="1" parent="1">
          <mxGeometry x="866.75" y="65" width="30" height="30" as="geometry" />
        </mxCell>
        <mxCell id="Mg5R0EyQ01lNSAKN2Ion-134" style="edgeStyle=orthogonalEdgeStyle;rounded=0;orthogonalLoop=1;jettySize=auto;html=1;exitX=0.5;exitY=1;exitDx=0;exitDy=0;entryX=-0.329;entryY=0.532;entryDx=0;entryDy=0;entryPerimeter=0;endArrow=block;endFill=1;fillColor=#dae8fc;strokeColor=#6c8ebf;" edge="1" parent="1" source="Mg5R0EyQ01lNSAKN2Ion-131" target="Mg5R0EyQ01lNSAKN2Ion-133">
          <mxGeometry relative="1" as="geometry" />
        </mxCell>
        <mxCell id="Mg5R0EyQ01lNSAKN2Ion-131" value="Start Session" style="html=1;whiteSpace=wrap;fillColor=#dae8fc;strokeColor=#6c8ebf;rounded=1;" vertex="1" parent="1">
          <mxGeometry x="826.75" y="125" width="110" height="50" as="geometry" />
        </mxCell>
        <mxCell id="Mg5R0EyQ01lNSAKN2Ion-133" value="" style="html=1;points=[];perimeter=orthogonalPerimeter;fillColor=#dae8fc;direction=south;strokeColor=#6c8ebf;" vertex="1" parent="1">
          <mxGeometry x="841.75" y="205" width="80" height="5" as="geometry" />
        </mxCell>
        <mxCell id="Mg5R0EyQ01lNSAKN2Ion-142" style="edgeStyle=orthogonalEdgeStyle;rounded=0;orthogonalLoop=1;jettySize=auto;html=1;exitX=1.029;exitY=0.785;exitDx=0;exitDy=0;entryX=0.5;entryY=0;entryDx=0;entryDy=0;exitPerimeter=0;endArrow=block;endFill=1;fillColor=#dae8fc;strokeColor=#6c8ebf;" edge="1" parent="1" source="Mg5R0EyQ01lNSAKN2Ion-133" target="Mg5R0EyQ01lNSAKN2Ion-135">
          <mxGeometry relative="1" as="geometry">
            <Array as="points">
              <mxPoint x="858.75" y="225" />
              <mxPoint x="799.75" y="225" />
            </Array>
          </mxGeometry>
        </mxCell>
        <mxCell id="Mg5R0EyQ01lNSAKN2Ion-135" value="customer &lt;br&gt;service" style="rounded=1;whiteSpace=wrap;html=1;arcSize=40;fillColor=#dae8fc;strokeColor=#6c8ebf;" vertex="1" parent="1">
          <mxGeometry x="740" y="245" width="120" height="40" as="geometry" />
        </mxCell>
        <mxCell id="Mg5R0EyQ01lNSAKN2Ion-136" value="" style="edgeStyle=orthogonalEdgeStyle;html=1;verticalAlign=bottom;endArrow=block;endSize=8;strokeColor=#6c8ebf;rounded=0;entryX=0;entryY=0.769;entryDx=0;entryDy=0;fillColor=#dae8fc;entryPerimeter=0;endFill=1;" edge="1" parent="1" source="Mg5R0EyQ01lNSAKN2Ion-135" target="Mg5R0EyQ01lNSAKN2Ion-139">
          <mxGeometry relative="1" as="geometry">
            <mxPoint x="800" y="305" as="targetPoint" />
          </mxGeometry>
        </mxCell>
        <mxCell id="Mg5R0EyQ01lNSAKN2Ion-143" style="edgeStyle=orthogonalEdgeStyle;rounded=0;orthogonalLoop=1;jettySize=auto;html=1;exitX=0.933;exitY=0.207;exitDx=0;exitDy=0;entryX=0.5;entryY=0;entryDx=0;entryDy=0;exitPerimeter=0;endArrow=block;endFill=1;fillColor=#dae8fc;strokeColor=#6c8ebf;" edge="1" parent="1" source="Mg5R0EyQ01lNSAKN2Ion-133" target="Mg5R0EyQ01lNSAKN2Ion-137">
          <mxGeometry relative="1" as="geometry">
            <Array as="points">
              <mxPoint x="904.75" y="225" />
              <mxPoint x="963.75" y="225" />
            </Array>
          </mxGeometry>
        </mxCell>
        <mxCell id="Mg5R0EyQ01lNSAKN2Ion-137" value="Recording&lt;br&gt;video" style="rounded=1;whiteSpace=wrap;html=1;arcSize=40;fillColor=#dae8fc;strokeColor=#6c8ebf;" vertex="1" parent="1">
          <mxGeometry x="903.5" y="245" width="120" height="40" as="geometry" />
        </mxCell>
        <mxCell id="Mg5R0EyQ01lNSAKN2Ion-138" value="" style="edgeStyle=orthogonalEdgeStyle;html=1;verticalAlign=bottom;endArrow=block;endSize=8;strokeColor=#6c8ebf;rounded=0;fillColor=#dae8fc;entryX=0;entryY=0.256;entryDx=0;entryDy=0;entryPerimeter=0;endFill=1;" edge="1" parent="1" target="Mg5R0EyQ01lNSAKN2Ion-139">
          <mxGeometry relative="1" as="geometry">
            <mxPoint x="895.5" y="295" as="targetPoint" />
            <mxPoint x="964.5" y="285" as="sourcePoint" />
            <Array as="points">
              <mxPoint x="964.5" y="305" />
              <mxPoint x="905.5" y="305" />
            </Array>
          </mxGeometry>
        </mxCell>
        <mxCell id="Mg5R0EyQ01lNSAKN2Ion-139" value="" style="html=1;points=[];perimeter=orthogonalPerimeter;fillColor=#dae8fc;direction=south;strokeColor=#6c8ebf;" vertex="1" parent="1">
          <mxGeometry x="846" y="325" width="80" height="5" as="geometry" />
        </mxCell>
        <mxCell id="Mg5R0EyQ01lNSAKN2Ion-140" value="" style="ellipse;html=1;shape=endState;fillColor=#dae8fc;strokeColor=#6c8ebf;" vertex="1" parent="1">
          <mxGeometry x="871" y="435" width="30" height="30" as="geometry" />
        </mxCell>
        <mxCell id="Mg5R0EyQ01lNSAKN2Ion-145" style="edgeStyle=orthogonalEdgeStyle;rounded=0;orthogonalLoop=1;jettySize=auto;html=1;exitX=0.9;exitY=0.509;exitDx=0;exitDy=0;entryX=0.5;entryY=0;entryDx=0;entryDy=0;exitPerimeter=0;endArrow=block;endFill=1;fillColor=#dae8fc;strokeColor=#6c8ebf;" edge="1" parent="1" source="Mg5R0EyQ01lNSAKN2Ion-139" target="Mg5R0EyQ01lNSAKN2Ion-144">
          <mxGeometry relative="1" as="geometry" />
        </mxCell>
        <mxCell id="Mg5R0EyQ01lNSAKN2Ion-147" style="edgeStyle=orthogonalEdgeStyle;rounded=0;orthogonalLoop=1;jettySize=auto;html=1;exitX=0.5;exitY=1;exitDx=0;exitDy=0;entryX=0.5;entryY=0;entryDx=0;entryDy=0;endArrow=block;endFill=1;fillColor=#dae8fc;strokeColor=#6c8ebf;" edge="1" parent="1" source="Mg5R0EyQ01lNSAKN2Ion-144" target="Mg5R0EyQ01lNSAKN2Ion-140">
          <mxGeometry relative="1" as="geometry" />
        </mxCell>
        <mxCell id="Mg5R0EyQ01lNSAKN2Ion-144" value="End Session" style="html=1;whiteSpace=wrap;fillColor=#dae8fc;strokeColor=#6c8ebf;rounded=1;" vertex="1" parent="1">
          <mxGeometry x="831" y="355" width="110" height="50" as="geometry" />
        </mxCell>
      </root>
    </mxGraphModel>
  </diagram>
</mxfile>
